<svg xmlns="http://www.w3.org/2000/svg" width="316.74" height="138.222" viewBox="0 0 316.74 138.222">
  <defs>
    <style>
      .cls-1 {
        fill: #001921;
      }

      .cls-2 {
        fill: #2351a3;
      }

      .cls-3, .cls-5 {
        fill: #c7c379;
      }

      .cls-3, .cls-4 {
        fill-rule: evenodd;
      }

      .cls-4 {
        fill: #1b499e;
      }
    </style>
  </defs>
  <g id="logo_viet_sp" transform="translate(23.86 6.222)">
    <path id="Trường_tiếng_Nhật_Tokyo_World" data-name="Trường tiếng Nhật Tokyo World" class="cls-1" d="M-154.7,0h2.96V-12.34h4.2V-14.8h-11.32v2.46h4.16Zm8.84,0h2.92V-6.68c.64-1.62,1.7-2.2,2.58-2.2a3.53,3.53,0,0,1,1.16.18l.52-2.54a3.168,3.168,0,0,0-1.32-.24,3.88,3.88,0,0,0-3.18,2.26h-.08l-.2-1.98h-2.4Zm18.28-14.58a2.752,2.752,0,0,1,.36,1.28c0,1.68-.96,2.02-1.86,2.1h-.9v7.56a2.7,2.7,0,0,1-2.28,1.4c-1.08,0-1.56-.6-1.56-2.34V-11.2h-2.94v7c0,2.8,1.04,4.48,3.44,4.48a4.5,4.5,0,0,0,3.58-1.88h.08l.22,1.6h2.4V-10.26a3.251,3.251,0,0,0,2.3-3.24,3.854,3.854,0,0,0-.64-2.04Zm10.24.16-3.42-4.06-2.02,1.96L-118.8-13Zm-1.38,12.3c-1.52,0-2.38-1.36-2.38-3.46,0-2.12.86-3.5,2.38-3.5s2.38,1.38,2.38,3.5C-116.34-3.48-117.2-2.12-118.72-2.12Zm3.48-12.24a2.752,2.752,0,0,1,.36,1.28,1.893,1.893,0,0,1-1.64,2.06,5.561,5.561,0,0,0-2.2-.46c-2.8,0-5.38,2.16-5.38,5.9,0,3.7,2.58,5.86,5.38,5.86s5.38-2.16,5.38-5.86a6.017,6.017,0,0,0-1.72-4.44,3.335,3.335,0,0,0,2.64-3.26,3.687,3.687,0,0,0-.64-2.04ZM-110.38,0h2.92V-7.7a3.218,3.218,0,0,1,2.34-1.26c1.1,0,1.58.62,1.58,2.34V0h2.94V-6.98c0-2.82-1.04-4.5-3.46-4.5a5.162,5.162,0,0,0-3.64,1.76h-.08l-.2-1.48h-2.4Zm17.26,4.86c3.74,0,6.08-1.72,6.08-3.98,0-1.96-1.46-2.8-4.16-2.8h-1.9c-1.32,0-1.76-.32-1.76-.92a1.116,1.116,0,0,1,.48-.96,4.77,4.77,0,0,0,1.44.26c2.4,0,4.32-1.28,4.32-3.8a2.818,2.818,0,0,0-.52-1.7h1.92V-11.2h-4.04a5.269,5.269,0,0,0-1.68-.28c-2.38,0-4.52,1.42-4.52,4.06A3.7,3.7,0,0,0-95.98-4.5v.08a2.779,2.779,0,0,0-1.24,2.1A2.123,2.123,0,0,0-96.2-.44v.1a2.719,2.719,0,0,0-1.6,2.32C-97.8,3.96-95.76,4.86-93.12,4.86Zm.18-10.22A1.817,1.817,0,0,1-94.7-7.42c0-1.32.76-2.06,1.76-2.06s1.74.74,1.74,2.06S-91.96-5.36-92.94-5.36ZM-92.68,3c-1.64,0-2.68-.54-2.68-1.48a1.68,1.68,0,0,1,.74-1.3,6.321,6.321,0,0,0,1.56.16h1.36c1.2,0,1.86.2,1.86,1C-89.84,2.26-91,3-92.68,3ZM-75.48.28a7.238,7.238,0,0,0,2.36-.42l-.48-2.14a3.272,3.272,0,0,1-1.1.24c-1,0-1.52-.6-1.52-1.88V-8.88h2.76V-11.2h-2.76v-3h-2.46l-.34,3-1.72.14v2.18h1.58v4.96C-79.16-1.4-78.14.28-75.48.28Zm4.8-.28h2.92V-11.2h-2.92Zm1.48-13a1.628,1.628,0,0,0,1.74-1.6,1.6,1.6,0,0,0-1.74-1.6,1.611,1.611,0,0,0-1.76,1.6A1.634,1.634,0,0,0-69.2-13ZM-59.24.28A7.065,7.065,0,0,0-55.32-.96l-1-1.8a4.616,4.616,0,0,1-2.52.78,2.943,2.943,0,0,1-3.1-2.8h6.9a5.464,5.464,0,0,0,.14-1.34c0-3.1-1.6-5.36-4.68-5.36-2.68,0-5.22,2.26-5.22,5.9C-64.8-1.9-62.36.28-59.24.28Zm-2.74-7A2.525,2.525,0,0,1-59.54-9.2c1.44,0,2.12.96,2.12,2.48Zm.02-6.14,2.32-1.52h.1l2.32,1.52.94-1.08-2.14-2.08h-2.34l-2.16,2.08Zm4.96-2.5,1.14.9,2.3-2.7-1.6-1.06ZM-51.98,0h2.92V-7.7a3.218,3.218,0,0,1,2.34-1.26c1.1,0,1.58.62,1.58,2.34V0h2.94V-6.98c0-2.82-1.04-4.5-3.46-4.5A5.162,5.162,0,0,0-49.3-9.72h-.08l-.2-1.48h-2.4Zm17.26,4.86c3.74,0,6.08-1.72,6.08-3.98,0-1.96-1.46-2.8-4.16-2.8h-1.9c-1.32,0-1.76-.32-1.76-.92a1.116,1.116,0,0,1,.48-.96,4.77,4.77,0,0,0,1.44.26c2.4,0,4.32-1.28,4.32-3.8a2.818,2.818,0,0,0-.52-1.7h1.92V-11.2h-4.04a5.269,5.269,0,0,0-1.68-.28c-2.38,0-4.52,1.42-4.52,4.06A3.7,3.7,0,0,0-37.58-4.5v.08a2.779,2.779,0,0,0-1.24,2.1A2.123,2.123,0,0,0-37.8-.44v.1a2.719,2.719,0,0,0-1.6,2.32C-39.4,3.96-37.36,4.86-34.72,4.86Zm.18-10.22A1.817,1.817,0,0,1-36.3-7.42c0-1.32.76-2.06,1.76-2.06s1.74.74,1.74,2.06S-33.56-5.36-34.54-5.36ZM-34.28,3c-1.64,0-2.68-.54-2.68-1.48a1.68,1.68,0,0,1,.74-1.3,6.321,6.321,0,0,0,1.56.16h1.36c1.2,0,1.86.2,1.86,1C-31.44,2.26-32.6,3-34.28,3Zm13.34-3h2.8V-5.94c0-1.7-.22-3.56-.36-5.16h.1l1.5,3.18L-12.62,0h3V-14.8h-2.8v5.9c0,1.68.22,3.64.38,5.18h-.1l-1.48-3.2-4.3-7.88h-3.02ZM-5.7,0h2.92V-7.7A3.218,3.218,0,0,1-.44-8.96c1.1,0,1.58.62,1.58,2.34V0H4.08V-6.98c0-2.82-1.04-4.5-3.46-4.5A5.1,5.1,0,0,0-2.9-9.84l.12-2.1v-4.02H-5.7ZM10.36.28A5.266,5.266,0,0,0,13.74-1.2h.06L14.02,0h2.4V-6.54c0-3.24-1.46-4.94-4.3-4.94A8.947,8.947,0,0,0,7.44-10L8.5-8.06a6.328,6.328,0,0,1,3.08-1.06c1.38,0,1.86.84,1.9,1.94-4.5.48-6.44,1.74-6.44,4.14A3.181,3.181,0,0,0,10.36.28Zm.96-2.3c-.86,0-1.48-.38-1.48-1.26,0-1,.92-1.74,3.64-2.1v2.26A2.969,2.969,0,0,1,11.32-2.02ZM8.22-13.84l1.14,1.06,2.8-2.2h.08l2.8,2.2,1.14-1.06-2.5-3.02H10.7ZM11.82,5A1.577,1.577,0,0,0,13.5,3.4a1.588,1.588,0,0,0-1.68-1.6,1.588,1.588,0,0,0-1.68,1.6A1.577,1.577,0,0,0,11.82,5ZM23.64.28A7.238,7.238,0,0,0,26-.14l-.48-2.14a3.272,3.272,0,0,1-1.1.24c-1,0-1.52-.6-1.52-1.88V-8.88h2.76V-11.2H22.9v-3H20.44l-.34,3-1.72.14v2.18h1.58v4.96C19.96-1.4,20.98.28,23.64.28ZM36.66,0h2.96V-12.34h4.2V-14.8H32.5v2.46h4.16ZM49.5.28c2.8,0,5.38-2.16,5.38-5.86,0-3.74-2.58-5.9-5.38-5.9s-5.38,2.16-5.38,5.9C44.12-1.88,46.7.28,49.5.28Zm0-2.4c-1.52,0-2.38-1.36-2.38-3.46,0-2.12.86-3.5,2.38-3.5s2.38,1.38,2.38,3.5C51.88-3.48,51.02-2.12,49.5-2.12ZM57.84,0H60.7V-2.8l1.62-1.84L65.04,0h3.18L63.98-6.62l3.88-4.58h-3.2L60.78-6.36H60.7v-9.6H57.84ZM71.42,4.5c2.5,0,3.7-1.52,4.68-4.16L80.08-11.2H77.26L75.72-6c-.26,1.04-.54,2.12-.8,3.16h-.1C74.5-3.92,74.22-5,73.88-6L72.1-11.2H69.14L73.5-.2l-.2.66a2.144,2.144,0,0,1-2.1,1.7,3.012,3.012,0,0,1-.78-.14l-.54,2.26A4.742,4.742,0,0,0,71.42,4.5ZM86.94.28c2.8,0,5.38-2.16,5.38-5.86,0-3.74-2.58-5.9-5.38-5.9s-5.38,2.16-5.38,5.9C81.56-1.88,84.14.28,86.94.28Zm0-2.4c-1.52,0-2.38-1.36-2.38-3.46,0-2.12.86-3.5,2.38-3.5s2.38,1.38,2.38,3.5C89.32-3.48,88.46-2.12,86.94-2.12ZM101.96,0h3.62l1.62-7.32c.24-1.16.44-2.3.64-3.42h.08c.18,1.12.4,2.26.64,3.42L110.22,0h3.68l2.74-14.8h-2.82l-1.16,7.22c-.22,1.54-.44,3.12-.66,4.72h-.1c-.32-1.6-.62-3.2-.94-4.72l-1.72-7.22h-2.52L105-7.58c-.32,1.54-.64,3.14-.94,4.72h-.08c-.22-1.58-.46-3.16-.68-4.72l-1.18-7.22H99.1ZM123.8.28c2.8,0,5.38-2.16,5.38-5.86,0-3.74-2.58-5.9-5.38-5.9s-5.38,2.16-5.38,5.9C118.42-1.88,121,.28,123.8.28Zm0-2.4c-1.52,0-2.38-1.36-2.38-3.46,0-2.12.86-3.5,2.38-3.5s2.38,1.38,2.38,3.5C126.18-3.48,125.32-2.12,123.8-2.12ZM132.14,0h2.92V-6.68c.64-1.62,1.7-2.2,2.58-2.2a3.53,3.53,0,0,1,1.16.18l.52-2.54a3.168,3.168,0,0,0-1.32-.24,3.88,3.88,0,0,0-3.18,2.26h-.08l-.2-1.98h-2.4Zm11.98.28a4,4,0,0,0,1.52-.26l-.36-2.18a1.657,1.657,0,0,1-.4.04c-.28,0-.6-.22-.6-.88V-15.96h-2.92V-3.14C141.36-1.06,142.08.28,144.12.28Zm7.98,0a4.645,4.645,0,0,0,3.1-1.44h.06L155.5,0h2.38V-15.96h-2.94v3.94l.12,1.76a3.855,3.855,0,0,0-2.84-1.22c-2.42,0-4.7,2.24-4.7,5.9S149.32.28,152.1.28Zm.76-2.42c-1.48,0-2.32-1.16-2.32-3.48,0-2.24,1.06-3.44,2.32-3.44a2.976,2.976,0,0,1,2.08.84V-3.3A2.491,2.491,0,0,1,152.86-2.14Z" transform="translate(135 127)"/>
    <path id="Tổ_chức_đào_tạo_tiếng_Nhật_được_cấp_phép_của_Bộ_tư_pháp" data-name="Tổ chức đào tạo tiếng Nhật được cấp phép của Bộ tư pháp" class="cls-1" d="M-71.168,0h1.924V-8.021h2.73v-1.6h-7.358v1.6h2.7ZM-62.5.182A3.547,3.547,0,0,0-59-3.627a3.555,3.555,0,0,0-3.5-3.835,3.555,3.555,0,0,0-3.5,3.835A3.547,3.547,0,0,0-62.5.182Zm0-1.56c-.988,0-1.547-.884-1.547-2.249S-63.485-5.9-62.5-5.9s1.547.9,1.547,2.275S-61.509-1.378-62.5-1.378Zm-1.547-6.981,1.521-.988h.052l1.521.988.624-.7-1.417-1.352h-1.521l-1.391,1.352Zm3.484-1.105c.871-.143,1.638-.429,1.638-1.339,0-.689-.6-1.105-2.08-1.144l-.169.819c.728.052.975.208.975.52,0,.273-.195.39-.507.455Zm10.5,9.646A3.612,3.612,0,0,0-47.677-.7l-.754-1.261a2.261,2.261,0,0,1-1.417.585c-1.053,0-1.807-.884-1.807-2.249S-50.9-5.9-49.8-5.9a1.662,1.662,0,0,1,1.118.481l.91-1.235a3.183,3.183,0,0,0-2.119-.806,3.635,3.635,0,0,0-3.718,3.835A3.479,3.479,0,0,0-50.056.182ZM-45.649,0h1.9V-5.005a2.092,2.092,0,0,1,1.521-.819c.715,0,1.027.4,1.027,1.521V0h1.911V-4.537c0-1.833-.676-2.925-2.249-2.925A3.313,3.313,0,0,0-43.829-6.4l.078-1.365v-2.613h-1.9Zm14.573-10.738-1.3-1.274-2.21,2.639.949.923Zm.286,1.261a1.789,1.789,0,0,1,.234.832c0,1.092-.624,1.313-1.209,1.365h-.585v4.914a1.754,1.754,0,0,1-1.482.91c-.7,0-1.014-.39-1.014-1.521v-4.3h-1.911v4.55c0,1.82.676,2.912,2.236,2.912A2.926,2.926,0,0,0-32.194-1.04h.052L-32,0h1.56V-6.669a2.113,2.113,0,0,0,1.5-2.106A2.505,2.505,0,0,0-29.36-10.1ZM-24.654.182A3.612,3.612,0,0,0-22.275-.7l-.754-1.261a2.261,2.261,0,0,1-1.417.585c-1.053,0-1.807-.884-1.807-2.249S-25.5-5.9-24.394-5.9a1.662,1.662,0,0,1,1.118.481l.91-1.235a3.183,3.183,0,0,0-2.119-.806A3.635,3.635,0,0,0-28.2-3.627,3.479,3.479,0,0,0-24.654.182ZM-12.24-2.145a1.619,1.619,0,0,1-1.352.754c-.962,0-1.508-.7-1.508-1.937,0-1.183.689-1.885,1.508-1.885a1.934,1.934,0,0,1,1.352.546ZM-9.3-9.2h-1.027v-1.17H-12.24V-9.2h-2.236v.949h2.236v1.118l.078,1.144a2.5,2.5,0,0,0-1.846-.78,3.242,3.242,0,0,0-3.055,3.458c0,2.132,1.17,3.5,2.977,3.5a2.9,2.9,0,0,0,2-.871h.039l.13.689h1.586V-8.255L-9.3-8.333ZM-5.831.182a3.423,3.423,0,0,0,2.2-.962h.039l.143.78h1.56V-4.251c0-2.106-.949-3.211-2.8-3.211A5.816,5.816,0,0,0-7.729-6.5l.689,1.261a4.113,4.113,0,0,1,2-.689c.9,0,1.209.546,1.235,1.261-2.925.312-4.186,1.131-4.186,2.691A2.068,2.068,0,0,0-5.831.182Zm.624-1.5c-.559,0-.962-.247-.962-.819,0-.65.6-1.131,2.366-1.365v1.469A1.93,1.93,0,0,1-5.207-1.313Zm.52-7.137.936-.923-2.21-2.639-1.3,1.274ZM3.75.182a3.547,3.547,0,0,0,3.5-3.809,3.555,3.555,0,0,0-3.5-3.835,3.555,3.555,0,0,0-3.5,3.835A3.547,3.547,0,0,0,3.75.182Zm0-1.56c-.988,0-1.547-.884-1.547-2.249S2.762-5.9,3.75-5.9,5.3-5.005,5.3-3.627,4.738-1.378,3.75-1.378ZM15.762.182A4.7,4.7,0,0,0,17.3-.091l-.312-1.391a2.127,2.127,0,0,1-.715.156c-.65,0-.988-.39-.988-1.222V-5.772h1.794V-7.28H15.281V-9.23h-1.6l-.221,1.95-1.118.091v1.417H13.37v3.224C13.37-.91,14.033.182,15.762.182Zm4.94,0A3.423,3.423,0,0,0,22.9-.78h.039l.143.78h1.56V-4.251c0-2.106-.949-3.211-2.8-3.211A5.816,5.816,0,0,0,18.8-6.5l.689,1.261a4.113,4.113,0,0,1,2-.689c.9,0,1.209.546,1.235,1.261-2.925.312-4.186,1.131-4.186,2.691A2.068,2.068,0,0,0,20.7.182Zm.624-1.5c-.559,0-.962-.247-.962-.819,0-.65.6-1.131,2.366-1.365v1.469A1.93,1.93,0,0,1,21.326-1.313Zm.325,4.563a1.025,1.025,0,0,0,1.092-1.04,1.093,1.093,0,0,0-2.184,0A1.025,1.025,0,0,0,21.651,3.25ZM30.283.182a3.547,3.547,0,0,0,3.5-3.809,3.555,3.555,0,0,0-3.5-3.835,3.555,3.555,0,0,0-3.5,3.835A3.547,3.547,0,0,0,30.283.182Zm0-1.56c-.988,0-1.547-.884-1.547-2.249S29.3-5.9,30.283-5.9s1.547.9,1.547,2.275S31.271-1.378,30.283-1.378ZM42.3.182a4.7,4.7,0,0,0,1.534-.273l-.312-1.391a2.127,2.127,0,0,1-.715.156c-.65,0-.988-.39-.988-1.222V-5.772h1.794V-7.28H41.814V-9.23h-1.6l-.221,1.95-1.118.091v1.417H39.9v3.224C39.9-.91,40.566.182,42.3.182ZM45.74,0h1.9V-7.28h-1.9ZM46.7-8.45a1.058,1.058,0,0,0,1.131-1.04A1.043,1.043,0,0,0,46.7-10.53a1.047,1.047,0,0,0-1.144,1.04A1.062,1.062,0,0,0,46.7-8.45ZM53.5.182a4.592,4.592,0,0,0,2.548-.806l-.65-1.17a3,3,0,0,1-1.638.507,1.913,1.913,0,0,1-2.015-1.82h4.485a3.551,3.551,0,0,0,.091-.871c0-2.015-1.04-3.484-3.042-3.484a3.564,3.564,0,0,0-3.393,3.835A3.528,3.528,0,0,0,53.5.182ZM51.72-4.368A1.641,1.641,0,0,1,53.306-5.98c.936,0,1.378.624,1.378,1.612Zm.013-3.991,1.508-.988h.065l1.508.988.611-.7-1.391-1.352H52.513l-1.4,1.352Zm3.224-1.625L55.7-9.4l1.495-1.755-1.04-.689ZM58.545,0h1.9V-5.005a2.092,2.092,0,0,1,1.521-.819c.715,0,1.027.4,1.027,1.521V0H64.9V-4.537c0-1.833-.676-2.925-2.249-2.925a3.355,3.355,0,0,0-2.366,1.144h-.052l-.13-.962h-1.56ZM70.089,3.159c2.431,0,3.952-1.118,3.952-2.587,0-1.274-.949-1.82-2.7-1.82H70.1c-.858,0-1.144-.208-1.144-.6a.725.725,0,0,1,.312-.624,3.1,3.1,0,0,0,.936.169c1.56,0,2.808-.832,2.808-2.47a1.832,1.832,0,0,0-.338-1.105h1.248v-1.4H71.3a3.425,3.425,0,0,0-1.092-.182,2.683,2.683,0,0,0-2.938,2.639,2.406,2.406,0,0,0,.962,1.9v.052a1.807,1.807,0,0,0-.806,1.365,1.38,1.38,0,0,0,.663,1.222v.065a1.767,1.767,0,0,0-1.04,1.508C67.047,2.574,68.373,3.159,70.089,3.159Zm.117-6.643a1.181,1.181,0,0,1-1.144-1.339c0-.858.494-1.339,1.144-1.339s1.131.481,1.131,1.339S70.843-3.484,70.206-3.484Zm.169,5.434c-1.066,0-1.742-.351-1.742-.962a1.092,1.092,0,0,1,.481-.845,4.109,4.109,0,0,0,1.014.1h.884c.78,0,1.209.13,1.209.65C72.221,1.469,71.467,1.95,70.375,1.95ZM-121.674,16h1.82V12.139c0-1.105-.143-2.314-.234-3.354h.065l.975,2.067L-116.266,16h1.95V6.38h-1.82v3.835c0,1.092.143,2.366.247,3.367h-.065l-.962-2.08-2.795-5.122h-1.963Zm10.231,0h1.9V10.995a2.092,2.092,0,0,1,1.521-.819c.715,0,1.027.4,1.027,1.521V16h1.911V11.463c0-1.833-.676-2.925-2.249-2.925A3.313,3.313,0,0,0-109.623,9.6l.078-1.365V5.626h-1.9Zm10.764.182a3.423,3.423,0,0,0,2.2-.962h.039l.143.78h1.56V11.749c0-2.106-.949-3.211-2.8-3.211a5.816,5.816,0,0,0-3.042.962l.689,1.261a4.113,4.113,0,0,1,2-.689c.9,0,1.209.546,1.235,1.261-2.925.312-4.186,1.131-4.186,2.691A2.068,2.068,0,0,0-100.679,16.182Zm.624-1.495c-.559,0-.962-.247-.962-.819,0-.65.6-1.131,2.366-1.365v1.469A1.93,1.93,0,0,1-100.055,14.687ZM-102.07,7l.741.689,1.82-1.43h.052l1.82,1.43L-96.9,7l-1.625-1.963h-1.937Zm2.34,12.246a1.025,1.025,0,0,0,1.092-1.04,1.032,1.032,0,0,0-1.092-1.04,1.032,1.032,0,0,0-1.092,1.04A1.025,1.025,0,0,0-99.73,19.25Zm8.008-3.068a4.7,4.7,0,0,0,1.534-.273l-.312-1.391a2.127,2.127,0,0,1-.715.156c-.65,0-.988-.39-.988-1.222V10.228h1.794V8.72H-92.2V6.77h-1.6l-.221,1.95-1.118.091v1.417h1.027v3.224C-94.114,15.09-93.451,16.182-91.722,16.182Zm11.453-2.327a1.619,1.619,0,0,1-1.352.754c-.962,0-1.508-.7-1.508-1.937,0-1.183.689-1.885,1.508-1.885a1.934,1.934,0,0,1,1.352.546ZM-77.331,6.8h-1.027V5.626h-1.911V6.8H-82.5v.949h2.236V8.863l.078,1.144a2.5,2.5,0,0,0-1.846-.78,3.242,3.242,0,0,0-3.055,3.458c0,2.132,1.17,3.5,2.977,3.5a2.9,2.9,0,0,0,2-.871h.039l.13.689h1.586V7.745l1.027-.078Zm7.566-.273a1.789,1.789,0,0,1,.234.832c0,1.092-.624,1.313-1.209,1.365h-.585v4.914a1.754,1.754,0,0,1-1.482.91c-.7,0-1.014-.39-1.014-1.521V8.72h-1.911v4.55c0,1.82.676,2.912,2.236,2.912a2.926,2.926,0,0,0,2.327-1.222h.052l.143,1.04h1.56V9.331a2.113,2.113,0,0,0,1.5-2.106A2.505,2.505,0,0,0-68.335,5.9Zm6.084,10.647a1.032,1.032,0,0,0-1.092,1.04,1.025,1.025,0,0,0,1.092,1.04,1.025,1.025,0,0,0,1.092-1.04A1.032,1.032,0,0,0-63.681,17.17Zm0-2.548c-.988,0-1.547-.884-1.547-2.249s.559-2.275,1.547-2.275,1.547.9,1.547,2.275S-62.693,14.622-63.681,14.622Zm2.262-7.956a1.789,1.789,0,0,1,.234.832,1.231,1.231,0,0,1-1.066,1.339,3.615,3.615,0,0,0-1.43-.3,3.555,3.555,0,0,0-3.5,3.835,3.547,3.547,0,0,0,3.5,3.809,3.547,3.547,0,0,0,3.5-3.809A3.911,3.911,0,0,0-61.3,9.487a2.168,2.168,0,0,0,1.716-2.119A2.4,2.4,0,0,0-60,6.042Zm6.578,9.516a3.612,3.612,0,0,0,2.379-.884l-.754-1.261a2.261,2.261,0,0,1-1.417.585c-1.053,0-1.807-.884-1.807-2.249s.754-2.275,1.859-2.275a1.662,1.662,0,0,1,1.118.481l.91-1.235a3.183,3.183,0,0,0-2.119-.806,3.635,3.635,0,0,0-3.718,3.835A3.479,3.479,0,0,0-54.841,16.182Zm11.1,0A3.612,3.612,0,0,0-41.36,15.3l-.754-1.261a2.261,2.261,0,0,1-1.417.585c-1.053,0-1.807-.884-1.807-2.249s.754-2.275,1.859-2.275a1.662,1.662,0,0,1,1.118.481l.91-1.235a3.183,3.183,0,0,0-2.119-.806,3.635,3.635,0,0,0-3.718,3.835A3.479,3.479,0,0,0-43.739,16.182Zm6.045,0a3.423,3.423,0,0,0,2.2-.962h.039l.143.78h1.56V11.749c0-2.106-.949-3.211-2.8-3.211a5.816,5.816,0,0,0-3.042.962l.689,1.261a4.113,4.113,0,0,1,2-.689c.9,0,1.209.546,1.235,1.261-2.925.312-4.186,1.131-4.186,2.691A2.068,2.068,0,0,0-37.694,16.182Zm.624-1.495c-.559,0-.962-.247-.962-.819,0-.65.6-1.131,2.366-1.365v1.469A1.93,1.93,0,0,1-37.07,14.687Zm-.962-7.046,1.508-.988h.052l1.521.988.611-.7-1.391-1.352h-1.534l-1.4,1.352Zm3.211-1.625.741.585,1.495-1.755-1.027-.689ZM-31.155,18.8h1.9v-2.21l-.052-1.2a2.706,2.706,0,0,0,1.807.793c1.6,0,3.094-1.443,3.094-3.939,0-2.236-1.066-3.7-2.86-3.7a3.456,3.456,0,0,0-2.145.936h-.052l-.13-.754h-1.56Zm3.224-4.186a2.037,2.037,0,0,1-1.326-.546v-3.2a2.053,2.053,0,0,1,1.443-.754c1,0,1.443.767,1.443,2.158C-26.371,13.855-27.047,14.609-27.931,14.609Zm9.4,4.186h1.9v-2.21l-.052-1.2a2.706,2.706,0,0,0,1.807.793c1.6,0,3.094-1.443,3.094-3.939,0-2.236-1.066-3.7-2.86-3.7a3.456,3.456,0,0,0-2.145.936h-.052l-.13-.754h-1.56Zm3.224-4.186a2.037,2.037,0,0,1-1.326-.546v-3.2a2.053,2.053,0,0,1,1.443-.754c1,0,1.443.767,1.443,2.158C-13.748,13.855-14.424,14.609-15.308,14.609ZM-9.51,16h1.9V10.995a2.092,2.092,0,0,1,1.521-.819c.715,0,1.027.4,1.027,1.521V16h1.911V11.463c0-1.833-.676-2.925-2.249-2.925A3.313,3.313,0,0,0-7.69,9.6l.078-1.365V5.626h-1.9Zm12.129.182a4.592,4.592,0,0,0,2.548-.806l-.65-1.17a3,3,0,0,1-1.638.507,1.913,1.913,0,0,1-2.015-1.82H5.349a3.551,3.551,0,0,0,.091-.871c0-2.015-1.04-3.484-3.042-3.484A3.564,3.564,0,0,0-.995,12.373,3.528,3.528,0,0,0,2.619,16.182ZM.838,11.632A1.641,1.641,0,0,1,2.424,10.02c.936,0,1.378.624,1.378,1.612ZM2.45,7.55,5.011,5.262l-1.3-1.274L1.5,6.627ZM7.663,18.8h1.9v-2.21l-.052-1.2a2.706,2.706,0,0,0,1.807.793c1.6,0,3.094-1.443,3.094-3.939,0-2.236-1.066-3.7-2.86-3.7a3.456,3.456,0,0,0-2.145.936H9.353l-.13-.754H7.663Zm3.224-4.186a2.037,2.037,0,0,1-1.326-.546v-3.2A2.053,2.053,0,0,1,11,10.111c1,0,1.443.767,1.443,2.158C12.447,13.855,11.771,14.609,10.887,14.609ZM23.38,16.182a3.612,3.612,0,0,0,2.379-.884l-.754-1.261a2.261,2.261,0,0,1-1.417.585c-1.053,0-1.807-.884-1.807-2.249S22.535,10.1,23.64,10.1a1.662,1.662,0,0,1,1.118.481l.91-1.235a3.183,3.183,0,0,0-2.119-.806,3.635,3.635,0,0,0-3.718,3.835A3.479,3.479,0,0,0,23.38,16.182Zm6.565,0a2.926,2.926,0,0,0,2.327-1.222h.052L32.467,16h1.56V8.72H32.116v4.914a1.754,1.754,0,0,1-1.482.91c-.7,0-1.014-.39-1.014-1.521V8.72H27.709v4.55C27.709,15.09,28.385,16.182,29.945,16.182Zm.377-8.58c1.04-.091,1.95-.52,1.95-1.482,0-.988-.715-1.638-2.483-1.69l-.1,1.2c.832.039,1.183.26,1.183.624s-.312.494-.715.572Zm8.19,8.58a3.423,3.423,0,0,0,2.2-.962h.039l.143.78h1.56V11.749c0-2.106-.949-3.211-2.8-3.211a5.816,5.816,0,0,0-3.042.962l.689,1.261a4.113,4.113,0,0,1,2-.689c.9,0,1.209.546,1.235,1.261-2.925.312-4.186,1.131-4.186,2.691A2.068,2.068,0,0,0,38.512,16.182Zm.624-1.495c-.559,0-.962-.247-.962-.819,0-.65.6-1.131,2.366-1.365v1.469A1.93,1.93,0,0,1,39.136,14.687ZM48.809,16h3.432c2.119,0,3.731-.9,3.731-2.834a2.187,2.187,0,0,0-1.807-2.275v-.065a2.182,2.182,0,0,0,1.313-2.08c0-1.794-1.508-2.366-3.484-2.366H48.809Zm1.924-5.707V7.849h1.144c1.157,0,1.729.338,1.729,1.183,0,.767-.533,1.261-1.755,1.261Zm0,4.225v-2.8h1.339c1.326,0,2.028.39,2.028,1.326,0,1-.715,1.469-2.028,1.469ZM61.2,16.182a3.547,3.547,0,0,0,3.5-3.809,3.512,3.512,0,1,0-6.994,0A3.547,3.547,0,0,0,61.2,16.182Zm0-1.56c-.988,0-1.547-.884-1.547-2.249S60.21,10.1,61.2,10.1s1.547.9,1.547,2.275S62.186,14.622,61.2,14.622ZM58.611,7l.728.689,1.833-1.43h.052l1.82,1.43L63.785,7,62.16,5.041H60.223ZM61.2,19.25a1.041,1.041,0,1,0-1.092-1.04A1.025,1.025,0,0,0,61.2,19.25ZM73.21,16.182a4.7,4.7,0,0,0,1.534-.273l-.312-1.391a2.127,2.127,0,0,1-.715.156c-.65,0-.988-.39-.988-1.222V10.228h1.794V8.72H72.729V6.77h-1.6l-.221,1.95-1.118.091v1.417h1.027v3.224C70.818,15.09,71.48,16.182,73.21,16.182Zm9.334-9.659a1.789,1.789,0,0,1,.234.832c0,1.092-.624,1.313-1.209,1.365h-.585v4.914a1.754,1.754,0,0,1-1.482.91c-.7,0-1.014-.39-1.014-1.521V8.72H76.576v4.55c0,1.82.676,2.912,2.236,2.912A2.926,2.926,0,0,0,81.14,14.96h.052L81.335,16h1.56V9.331a2.113,2.113,0,0,0,1.5-2.106A2.505,2.505,0,0,0,83.974,5.9ZM89.187,18.8h1.9v-2.21l-.052-1.2a2.706,2.706,0,0,0,1.807.793c1.6,0,3.094-1.443,3.094-3.939,0-2.236-1.066-3.7-2.86-3.7a3.456,3.456,0,0,0-2.145.936h-.052l-.13-.754h-1.56Zm3.224-4.186a2.037,2.037,0,0,1-1.326-.546v-3.2a2.053,2.053,0,0,1,1.443-.754c1,0,1.443.767,1.443,2.158C93.97,13.855,93.295,14.609,92.41,14.609ZM98.209,16h1.9V10.995a2.092,2.092,0,0,1,1.521-.819c.715,0,1.027.4,1.027,1.521V16h1.911V11.463c0-1.833-.676-2.925-2.249-2.925A3.313,3.313,0,0,0,100.029,9.6l.078-1.365V5.626h-1.9Zm10.764.182a3.423,3.423,0,0,0,2.2-.962h.039l.143.78h1.56V11.749c0-2.106-.949-3.211-2.8-3.211a5.816,5.816,0,0,0-3.042.962l.689,1.261a4.113,4.113,0,0,1,2-.689c.9,0,1.209.546,1.235,1.261-2.925.312-4.186,1.131-4.186,2.691A2.068,2.068,0,0,0,108.973,16.182Zm.624-1.495c-.559,0-.962-.247-.962-.819,0-.65.6-1.131,2.366-1.365v1.469A1.93,1.93,0,0,1,109.6,14.687Zm.624-7.137,2.574-2.288-1.3-1.274-2.21,2.639ZM115.511,18.8h1.9v-2.21l-.052-1.2a2.706,2.706,0,0,0,1.807.793c1.6,0,3.094-1.443,3.094-3.939,0-2.236-1.066-3.7-2.86-3.7a3.456,3.456,0,0,0-2.145.936H117.2l-.13-.754h-1.56Zm3.224-4.186a2.037,2.037,0,0,1-1.326-.546v-3.2a2.053,2.053,0,0,1,1.443-.754c1,0,1.443.767,1.443,2.158C120.3,13.855,119.619,14.609,118.735,14.609Z" transform="translate(135 77)"/>
    <g id="symbol" transform="translate(100 -6.222)">
      <path id="パス_331" data-name="パス 331" class="cls-2" d="M74.9,42.19V37.43H68.576c.006-.164.013-.368.013-.577a13.624,13.624,0,1,0-27.249,0c0,.2.007.4.016.577H35.027V42.19H23.494V56.552H86.433V42.19Z" transform="translate(-19.964 -19.675)"/>
      <g id="グループ化_20" data-name="グループ化 20">
        <path id="パス_332" data-name="パス 332" class="cls-3" d="M13.089,19.005V15.687h6.536a16.923,16.923,0,0,1,33.384,0h6.534V20.4H71.083V55.083H1.549V20.4h11.54Zm40.125,0H49.875c.01-.21.015-.42.015-.628a13.573,13.573,0,0,0-27.147,0c0,.208,0,.418.014.628H16.425v4.71H4.883v14.11H67.747V23.715H56.207v-4.71Z" transform="translate(-1.316 -1.317)"/>
        <path id="パス_333" data-name="パス 333" class="cls-4" d="M18.129,14.138H11.54v4.709H0V54H70V18.847H58.458V14.138H51.871a17.135,17.135,0,0,0-33.742,0Zm.376.461.031-.194a16.692,16.692,0,0,1,32.928,0l.031.194h6.5v4.709H69.537V53.539H.463V19.308H12V14.6Z"/>
      </g>
      <path id="パス_334" data-name="パス 334" class="cls-5" d="M49.99,157.211q.392,0,1-.006t1.235-.006q.634,0,1.316-.006t1.373-.006q-.034.441-.063.812t-.046.731q-.017.359-.023.724t-.006.793l-.439.025q-.1-.68-.225-1.146a2.077,2.077,0,0,0-.352-.762,1.254,1.254,0,0,0-.623-.422,3.492,3.492,0,0,0-1.039-.126H50.787V167.7a2.3,2.3,0,0,0,.046.5.588.588,0,0,0,.208.334,1.1,1.1,0,0,0,.49.2,6.536,6.536,0,0,0,.894.088l-.023.454q-.243,0-.548-.007t-.629-.006q-.323,0-.64-.006c-.212,0-.41-.006-.594-.006-.154,0-.321,0-.5.006s-.364.006-.548.006-.369,0-.554.006-.35.007-.5.007l-.035-.428a5.738,5.738,0,0,0,.854-.113.926.926,0,0,0,.485-.252.915.915,0,0,0,.214-.472,4.656,4.656,0,0,0,.052-.775v-9.421H48.179a3.556,3.556,0,0,0-1.044.126,1.319,1.319,0,0,0-.641.422,2.03,2.03,0,0,0-.369.762,10.448,10.448,0,0,0-.231,1.146l-.439-.025v-.793q0-.567-.017-1.083t-.075-1.184q.692,0,1.362.006t1.293.006q.623,0,1.1.006T49.99,157.211Z" transform="translate(-38.547 -133.866)"/>
      <path id="パス_335" data-name="パス 335" class="cls-5" d="M123.432,167.072l1.823-5.945L124.8,159.3q-.133-.534-.242-.85a1.454,1.454,0,0,0-.256-.484.749.749,0,0,0-.356-.23,3.21,3.21,0,0,0-.551-.1l.019-.447q.4,0,.878.012t.964.012q.4,0,.8-.012t.8-.012l.029.422a2.526,2.526,0,0,0-.826.186.471.471,0,0,0-.237.459,5.223,5.223,0,0,0,.1.683l1.946,8.129h.019l2.069-7.943a4.925,4.925,0,0,0,.161-.881.442.442,0,0,0-.252-.441,2.918,2.918,0,0,0-.907-.168l.019-.447q.427,0,.864.012t.864.012q.351,0,.726-.012t.726-.012l.029.422a2.9,2.9,0,0,0-.612.118.962.962,0,0,0-.422.285,1.956,1.956,0,0,0-.327.583q-.147.379-.328,1.024-.683,2.433-1.319,4.8t-1.3,4.809l-.57.062q-.456-1.849-.916-3.617t-.868-3.444q-.238.732-.522,1.651t-.569,1.868q-.285.95-.551,1.855t-.465,1.626l-.551.062q-.626-2.543-1.253-5t-1.281-4.989q-.133-.534-.247-.85a1.4,1.4,0,0,0-.27-.484.8.8,0,0,0-.384-.23,3.785,3.785,0,0,0-.6-.1l.019-.447q.4,0,.878.012t.964.012q.4,0,.8-.012t.8-.012l.028.422a2.171,2.171,0,0,0-.759.186.469.469,0,0,0-.218.447,1.554,1.554,0,0,0,.033.3q.033.168.081.391l1.946,8.129h.019Z" transform="translate(-101.097 -133.872)"/>
      <path id="パス_336" data-name="パス 336" class="cls-5" d="M277.878,157.572a6.678,6.678,0,0,0-.978.12,1.356,1.356,0,0,0-.582.253.854.854,0,0,0-.28.474,3.364,3.364,0,0,0-.073.771v8.026a3.128,3.128,0,0,0,.066.708.765.765,0,0,0,.265.436,1.237,1.237,0,0,0,.559.221,5.862,5.862,0,0,0,.964.063h.766a6.7,6.7,0,0,0,1.4-.12,2.337,2.337,0,0,0,.92-.4,2.6,2.6,0,0,0,.655-.752q.279-.467.619-1.15l.559.114q-.117.367-.221.784t-.191.822q-.089.4-.147.758a5.827,5.827,0,0,0-.074.582h-2.238q-.972,0-1.678-.007t-1.207-.006q-.5,0-.869-.007t-.648-.006h-.516q-.295,0-.647.006t-.707.007q-.353,0-.67.006t-.523.007l-.044-.43a6.682,6.682,0,0,0,.979-.12,1.353,1.353,0,0,0,.581-.253.851.851,0,0,0,.279-.468,3.31,3.31,0,0,0,.074-.777v-8.506a1.643,1.643,0,0,0-.066-.505.637.637,0,0,0-.265-.335,1.494,1.494,0,0,0-.574-.2,8.412,8.412,0,0,0-1.008-.088l.044-.455q.236,0,.581.006c.231,0,.479.006.744.006s.535,0,.81.006.529.006.765.006q.28,0,.633-.006t.707-.006q.354,0,.663-.006t.515-.006Z" transform="translate(-231.684 -133.83)"/>
      <path id="パス_337" data-name="パス 337" class="cls-5" d="M351.413,165.573a10.634,10.634,0,0,0,.72,1.165,4.125,4.125,0,0,0,.915.929,4.2,4.2,0,0,0,1.245.619,5.727,5.727,0,0,0,1.712.225,4.471,4.471,0,0,0,1.22-.158,3.29,3.29,0,0,0,.983-.449,2.223,2.223,0,0,0,.661-.685,1.658,1.658,0,0,0,.238-.868,1.7,1.7,0,0,0-.305-1.02,2.729,2.729,0,0,0-.814-.734,6.274,6.274,0,0,0-1.153-.54q-.644-.23-1.321-.449-.762-.242-1.534-.534a7.026,7.026,0,0,1-1.381-.692,3.89,3.89,0,0,1-1-.922,2.009,2.009,0,0,1-.39-1.238,2.228,2.228,0,0,1,.432-1.353,3.486,3.486,0,0,1,1.17-.989,6.3,6.3,0,0,1,1.712-.607,10.012,10.012,0,0,1,2.076-.206,15.747,15.747,0,0,1,1.974.115q.907.116,1.94.31-.051.389-.084.722t-.043.655c-.006.215-.011.433-.017.655s-.008.463-.008.722l-.711.049a2.558,2.558,0,0,0-1.093-1.924,4.453,4.453,0,0,0-2.533-.637,4.4,4.4,0,0,0-1.118.134,2.815,2.815,0,0,0-.882.389,1.956,1.956,0,0,0-.584.607,1.5,1.5,0,0,0-.212.789,1.721,1.721,0,0,0,.263.977,2.39,2.39,0,0,0,.72.686,5.182,5.182,0,0,0,1.059.5q.6.213,1.262.419.813.255,1.635.558a7.828,7.828,0,0,1,1.475.716,3.893,3.893,0,0,1,1.059.959,2.091,2.091,0,0,1,.407,1.287,2.387,2.387,0,0,1-.474,1.463,4,4,0,0,1-1.254,1.08,6.54,6.54,0,0,1-1.8.674,9.392,9.392,0,0,1-2.085.231,14.577,14.577,0,0,1-1.931-.134q-1-.133-2.118-.364-.119-.8-.288-1.505a14.687,14.687,0,0,0-.457-1.505Z" transform="translate(-298.374 -133.763)"/>
      <g id="グループ化_21" data-name="グループ化 21" transform="translate(3.635 40.245)">
        <path id="パス_338" data-name="パス 338" class="cls-2" d="M26.627,271.322l-.741,0-.291,0-.254,0c-.183,0-.434,0-.693,0l-.4,0h-.063l.006.063c.011.117.018.221.022.311s0,.187,0,.286v.266l.234.013.009-.051a2.524,2.524,0,0,1,.066-.3.469.469,0,0,1,.095-.18.335.335,0,0,1,.159-.1,1.068,1.068,0,0,1,.287-.031h.314v2.448a1.079,1.079,0,0,1-.014.2.178.178,0,0,1-.046.1.222.222,0,0,1-.112.051,1.762,1.762,0,0,1-.24.029l-.059,0,.02.225h.053l.145,0c.107,0,.215,0,.32,0s.2,0,.316,0,.25,0,.368,0l.16,0h.055l.013-.234-.059,0a2.018,2.018,0,0,1-.252-.023.277.277,0,0,1-.118-.041.1.1,0,0,1-.039-.056.519.519,0,0,1-.012-.12V271.6h.324a1.046,1.046,0,0,1,.285.031.313.313,0,0,1,.153.094.483.483,0,0,1,.091.181,2.813,2.813,0,0,1,.064.3l.009.051.234-.012v-.055c0-.076,0-.146,0-.21s0-.128.007-.191.008-.127.014-.2l.023-.267h-.063Z" transform="translate(-24.189 -271.234)"/>
        <path id="パス_339" data-name="パス 339" class="cls-2" d="M47.671,271.337a1.535,1.535,0,0,0-.544-.343,1.952,1.952,0,0,0-.692-.12,1.8,1.8,0,0,0-.7.132,1.59,1.59,0,0,0-.542.368,1.678,1.678,0,0,0-.351.56,1.956,1.956,0,0,0-.125.706,1.863,1.863,0,0,0,.127.7,1.523,1.523,0,0,0,.9.88,1.944,1.944,0,0,0,.691.119,1.808,1.808,0,0,0,.7-.132,1.587,1.587,0,0,0,.542-.368,1.673,1.673,0,0,0,.351-.56,1.955,1.955,0,0,0,.124-.706,1.864,1.864,0,0,0-.127-.7A1.573,1.573,0,0,0,47.671,271.337Zm-1.627,2.632a.95.95,0,0,1-.368-.25,1.361,1.361,0,0,1-.273-.471,2.184,2.184,0,0,1-.107-.734,1.85,1.85,0,0,1,.094-.628,1.152,1.152,0,0,1,.247-.414.913.913,0,0,1,.353-.228,1.263,1.263,0,0,1,.425-.072,1.2,1.2,0,0,1,.411.075.954.954,0,0,1,.368.25,1.358,1.358,0,0,1,.272.471,2.182,2.182,0,0,1,.107.734,1.847,1.847,0,0,1-.094.628,1.155,1.155,0,0,1-.247.414.916.916,0,0,1-.353.228A1.221,1.221,0,0,1,46.043,273.969Z" transform="translate(-41.633 -270.855)"/>
        <path id="パス_340" data-name="パス 340" class="cls-2" d="M75.646,271.319q-.125,0-.258,0c-.194.005-.375,0-.542,0-.092,0-.18,0-.263,0h-.055l-.013.232.057,0a.985.985,0,0,1,.25.038c.038.015.038.03.038.038a.229.229,0,0,1-.024.089c-.019.042-.045.095-.08.158l-.539.973-.559-1.029c-.026-.05-.047-.092-.062-.127a.189.189,0,0,1-.019-.071c0-.008,0-.023.034-.038a.789.789,0,0,1,.231-.039l.058,0-.02-.225H73.83q-.142,0-.288,0c-.214.005-.419,0-.624,0q-.17,0-.311,0H72.54l-.122,0c-.1,0-.213,0-.33,0s-.2,0-.306,0l-.321,0-.12,0h-.053l-.02.23.06,0a.958.958,0,0,1,.2.025c.047.013.06.028.063.031s.006.009,0,.026a.527.527,0,0,1-.061.1q-.083.1-.189.222t-.222.242q-.115.122-.232.238c-.078.078-.151.149-.219.212a.814.814,0,0,1-.164.119.513.513,0,0,1-.092.036v-.883a.944.944,0,0,1,.016-.19.188.188,0,0,1,.046-.1.227.227,0,0,1,.1-.052,1.173,1.173,0,0,1,.206-.03l.053,0v-.226h-.058l-.122,0-.31,0c-.118,0-.2,0-.314,0s-.248,0-.355,0l-.135,0H69.48l-.013.233.058,0a1.672,1.672,0,0,1,.223.023.257.257,0,0,1,.108.041.1.1,0,0,1,.038.057.5.5,0,0,1,.012.12v2.255a1.086,1.086,0,0,1-.014.2.175.175,0,0,1-.044.094.225.225,0,0,1-.1.052,1.279,1.279,0,0,1-.214.03l-.059,0,.02.225h.053l.119,0c.094,0,.2,0,.31,0s.2,0,.316,0,.247,0,.35,0l.132,0h.058v-.234l-.055,0a1.537,1.537,0,0,1-.219-.022.239.239,0,0,1-.1-.041.1.1,0,0,1-.035-.056.589.589,0,0,1-.01-.122v-1.087a.166.166,0,0,1,.1.023.457.457,0,0,1,.107.1q.1.124.223.263t.237.281l.231.278q.112.135.205.252t.16.206a1.251,1.251,0,0,1,.089.134l.018.033.037,0,.1,0c.145,0,.267,0,.4,0,.1,0,.2,0,.281,0h.055l.013-.231-.056,0a1.421,1.421,0,0,1-.18-.026.4.4,0,0,1-.12-.048.77.77,0,0,1-.123-.1q-.068-.063-.167-.165t-.224-.247q-.135-.156-.291-.338t-.314-.376l-.267-.328.225-.229.257-.262q.122-.125.227-.229c.07-.069.129-.125.178-.17a1.95,1.95,0,0,1,.185-.155,1.1,1.1,0,0,1,.173-.1.907.907,0,0,1,.18-.063,1.421,1.421,0,0,1,.2-.03h0l.056,0a1.22,1.22,0,0,1,.2.03.342.342,0,0,1,.125.06.509.509,0,0,1,.1.117q.054.081.131.211.2.327.326.555l.219.388q.066.118.1.2a.908.908,0,0,1,.052.14.6.6,0,0,1,.02.126q0,.067,0,.163v.509a1.1,1.1,0,0,1-.014.2.179.179,0,0,1-.046.1.223.223,0,0,1-.112.051,1.749,1.749,0,0,1-.24.029l-.059,0,.02.225h.053l.145,0c.107,0,.214,0,.32,0s.2,0,.316,0,.25,0,.368,0l.16,0h.055l.013-.234-.059,0a2.031,2.031,0,0,1-.252-.023.276.276,0,0,1-.118-.041.1.1,0,0,1-.039-.056.515.515,0,0,1-.012-.12v-.663c0-.055,0-.1,0-.141a.488.488,0,0,1,.016-.109.986.986,0,0,1,.051-.139q.036-.083.106-.219c.046-.092.111-.212.193-.358s.18-.314.294-.5q.093-.156.157-.252a.694.694,0,0,1,.122-.142.333.333,0,0,1,.13-.069,1.105,1.105,0,0,1,.205-.032l.058,0-.02-.225h-.053Z" transform="translate(-62.663 -271.233)"/>
        <path id="パス_341" data-name="パス 341" class="cls-2" d="M114.206,271.337a1.539,1.539,0,0,0-.545-.343,1.951,1.951,0,0,0-.692-.12,1.8,1.8,0,0,0-.7.132,1.591,1.591,0,0,0-.542.368,1.678,1.678,0,0,0-.351.56,1.957,1.957,0,0,0-.124.706,1.865,1.865,0,0,0,.127.7,1.523,1.523,0,0,0,.9.88,1.942,1.942,0,0,0,.69.12,1.806,1.806,0,0,0,.7-.132,1.588,1.588,0,0,0,.542-.368,1.676,1.676,0,0,0,.351-.56,1.958,1.958,0,0,0,.124-.706,1.866,1.866,0,0,0-.127-.7A1.575,1.575,0,0,0,114.206,271.337Zm-1.627,2.632a.948.948,0,0,1-.368-.25,1.36,1.36,0,0,1-.273-.471,2.182,2.182,0,0,1-.107-.734,1.852,1.852,0,0,1,.094-.628,1.154,1.154,0,0,1,.247-.414.91.91,0,0,1,.353-.228,1.262,1.262,0,0,1,.424-.072,1.2,1.2,0,0,1,.411.075.953.953,0,0,1,.368.25,1.361,1.361,0,0,1,.273.471,2.182,2.182,0,0,1,.107.734,1.851,1.851,0,0,1-.094.628,1.156,1.156,0,0,1-.247.414.913.913,0,0,1-.353.228A1.223,1.223,0,0,1,112.578,273.969Z" transform="translate(-98.251 -270.855)"/>
        <path id="パス_342" data-name="パス 342" class="cls-2" d="M161.7,271.319q-.125,0-.258,0c-.195.005-.372,0-.559,0q-.155,0-.306,0h-.055l-.013.233.058,0a1.227,1.227,0,0,1,.3.042c.042.015.051.037.051.065a.948.948,0,0,1-.054.219l-.677,1.987-.636-2.033a1,1,0,0,1-.035-.17.066.066,0,0,1,.048-.07,1.081,1.081,0,0,1,.275-.047l.058,0-.02-.225h-.053q-.141,0-.285,0c-.209.005-.415,0-.621,0q-.17,0-.311,0h-.055l-.013.231.056,0a1.463,1.463,0,0,1,.186.026.225.225,0,0,1,.1.049.315.315,0,0,1,.076.111,2.276,2.276,0,0,1,.083.224l.154.473-.579,1.444-.641-2.047c-.011-.04-.02-.075-.028-.1a.274.274,0,0,1-.01-.067.064.064,0,0,1,.043-.068.868.868,0,0,1,.25-.046l.058,0-.02-.224h-.053q-.141,0-.285,0c-.209.005-.415,0-.621,0q-.17,0-.311,0h-.055l-.013.232.056,0a1.74,1.74,0,0,1,.2.026.253.253,0,0,1,.111.051.31.31,0,0,1,.08.11,1.986,1.986,0,0,1,.085.224q.231.683.452,1.347t.442,1.35l.014.044.277-.024.013-.035q.07-.194.164-.438t.194-.5q.1-.256.2-.5.065-.161.123-.3c.083.256.169.518.259.782q.162.477.323.976l.014.044.284-.024.012-.035q.235-.66.459-1.3t.465-1.294a2.6,2.6,0,0,1,.113-.27.455.455,0,0,1,.1-.14.3.3,0,0,1,.125-.065,1.248,1.248,0,0,1,.206-.03l.058,0-.02-.225H161.7Z" transform="translate(-137.117 -271.233)"/>
        <path id="パス_343" data-name="パス 343" class="cls-2" d="M192.176,271.337a1.536,1.536,0,0,0-.545-.343,1.949,1.949,0,0,0-.692-.12,1.8,1.8,0,0,0-.7.132,1.59,1.59,0,0,0-.542.368,1.677,1.677,0,0,0-.351.56,1.956,1.956,0,0,0-.124.706,1.863,1.863,0,0,0,.126.7,1.524,1.524,0,0,0,.9.88,1.942,1.942,0,0,0,.69.12,1.806,1.806,0,0,0,.7-.132,1.59,1.59,0,0,0,.542-.368,1.675,1.675,0,0,0,.351-.56,1.959,1.959,0,0,0,.124-.706,1.866,1.866,0,0,0-.127-.7A1.568,1.568,0,0,0,192.176,271.337Zm-.1,1.364a1.849,1.849,0,0,1-.094.628,1.153,1.153,0,0,1-.247.414.915.915,0,0,1-.353.229,1.22,1.22,0,0,1-.835,0,.95.95,0,0,1-.368-.25,1.361,1.361,0,0,1-.273-.471,2.183,2.183,0,0,1-.107-.734,1.85,1.85,0,0,1,.094-.628,1.148,1.148,0,0,1,.247-.414.909.909,0,0,1,.353-.228,1.261,1.261,0,0,1,.424-.072,1.2,1.2,0,0,1,.411.075.954.954,0,0,1,.368.25,1.36,1.36,0,0,1,.273.471A2.186,2.186,0,0,1,192.078,272.7Z" transform="translate(-164.578 -270.855)"/>
        <path id="パス_344" data-name="パス 344" class="cls-2" d="M216.831,274.221a.405.405,0,0,1-.113-.036.311.311,0,0,1-.086-.068c-.03-.033-.066-.078-.106-.133s-.07-.1-.117-.182-.1-.168-.16-.271-.123-.218-.192-.343q-.089-.161-.181-.334a1.152,1.152,0,0,0,.216-.122,1.045,1.045,0,0,0,.218-.209.951.951,0,0,0,.145-.266.939.939,0,0,0,.052-.311.728.728,0,0,0-.11-.413.788.788,0,0,0-.284-.255,1.235,1.235,0,0,0-.382-.127,2.329,2.329,0,0,0-.7-.015,2.717,2.717,0,0,1-.429.016c-.116,0-.231,0-.326,0l-.127,0H214.1l-.013.233.058,0a1.544,1.544,0,0,1,.216.023.23.23,0,0,1,.1.039.109.109,0,0,1,.036.059.514.514,0,0,1,.012.12v2.255a1.11,1.11,0,0,1-.014.2.187.187,0,0,1-.043.095.211.211,0,0,1-.1.052,1.1,1.1,0,0,1-.2.03l-.057,0,.013.225h.055l.115,0c.091,0,.194,0,.295,0l.139,0c.107,0,.216,0,.327,0s.222,0,.33,0h.058v-.235h-.057a1.288,1.288,0,0,1-.232-.021.212.212,0,0,1-.1-.041.088.088,0,0,1-.029-.057,1.087,1.087,0,0,1-.006-.128v-1l.032,0,.068,0h.1a.558.558,0,0,1,.112.009.167.167,0,0,1,.056.021.111.111,0,0,1,.031.029c.012.017.024.036.036.057q.127.217.244.428t.214.39q.1.179.167.314c.046.09.081.158.1.2l.017.035.039,0,.1,0,.1,0c.1,0,.2,0,.312,0s.2,0,.264,0h.055l.013-.231-.056,0Q216.9,274.235,216.831,274.221Zm-.9-2.211a.674.674,0,0,1-.2.542.878.878,0,0,1-.575.167h-.157v-1.08a.907.907,0,0,1,.006-.113.134.134,0,0,1,.023-.064.108.108,0,0,1,.056-.034.537.537,0,0,1,.146-.016.827.827,0,0,1,.513.146A.531.531,0,0,1,215.935,272.01Z" transform="translate(-185.727 -271.062)"/>
        <path id="パス_345" data-name="パス 345" class="cls-2" d="M236.609,273.76c-.05.119-.1.22-.139.3a.629.629,0,0,1-.135.182.449.449,0,0,1-.186.095,1.265,1.265,0,0,1-.3.03h-.174a1.083,1.083,0,0,1-.208-.016.206.206,0,0,1-.1-.044.153.153,0,0,1-.043-.084.94.94,0,0,1-.014-.177V271.92a.981.981,0,0,1,.016-.193.184.184,0,0,1,.047-.1.242.242,0,0,1,.107-.053,1.266,1.266,0,0,1,.213-.03l.06,0-.027-.225h-.051l-.118,0c-.094,0-.2,0-.312,0s-.2,0-.316,0-.249,0-.353,0l-.134,0h-.053l-.019.233.06,0a1.606,1.606,0,0,1,.221.023.257.257,0,0,1,.106.041.108.108,0,0,1,.04.059.441.441,0,0,1,.013.118v2.255a.976.976,0,0,1-.016.194.178.178,0,0,1-.047.094.239.239,0,0,1-.107.053,1.309,1.309,0,0,1-.213.03l-.058,0,.02.225h.053l.121,0c.1,0,.205,0,.313,0l.146,0h.117l.147,0c.112,0,.258,0,.473,0l.382,0h.564l0-.055c0-.039.008-.089.016-.149s.02-.128.033-.2.028-.143.043-.216.032-.141.049-.2l.016-.058-.233-.055Z" transform="translate(-202.976 -271.233)"/>
        <path id="パス_346" data-name="パス 346" class="cls-2" d="M254.427,271.463a1.791,1.791,0,0,0-.614-.263,3.3,3.3,0,0,0-1.077-.06,5.722,5.722,0,0,1-.7.015l-.294,0h-.055l-.013.234.058,0a2.055,2.055,0,0,1,.235.021.243.243,0,0,1,.109.039.1.1,0,0,1,.038.06.6.6,0,0,1,.012.134v2.241a1.052,1.052,0,0,1-.014.2.178.178,0,0,1-.046.1.218.218,0,0,1-.106.051,1.477,1.477,0,0,1-.219.029l-.059,0,.02.225h.053l.125,0c.094,0,.2,0,.3,0l.141,0a3.156,3.156,0,0,1,.359.022,3.387,3.387,0,0,0,.371.022,2.3,2.3,0,0,0,.751-.122,1.868,1.868,0,0,0,.628-.358,1.725,1.725,0,0,0,.43-.579,1.855,1.855,0,0,0,.159-.785,1.515,1.515,0,0,0-.163-.729A1.379,1.379,0,0,0,254.427,271.463Zm.018,1.318a1.7,1.7,0,0,1-.1.606,1.291,1.291,0,0,1-.284.453,1.219,1.219,0,0,1-.437.283,1.587,1.587,0,0,1-.571.1.849.849,0,0,1-.259-.03.226.226,0,0,1-.113-.073.219.219,0,0,1-.039-.114c0-.053-.006-.111-.006-.174v-2.315a.047.047,0,0,1,.014-.013.393.393,0,0,1,.092-.043.807.807,0,0,1,.147-.034,1.3,1.3,0,0,1,.189-.013,1.668,1.668,0,0,1,.548.087,1.16,1.16,0,0,1,.717.682A1.585,1.585,0,0,1,254.445,272.781Z" transform="translate(-217.706 -271.065)"/>
        <path id="パス_347" data-name="パス 347" class="cls-2" d="M296.477,271.549l-.019-.225h-.18l-.151,0-.158,0h-.141l-.172,0c-.123,0-.241,0-.343,0l-.132,0h-.055l-.013.233.058,0a1.543,1.543,0,0,1,.213.023.249.249,0,0,1,.1.041.1.1,0,0,1,.038.057.5.5,0,0,1,.012.12v2.784q0,.1,0,.207c0,.068,0,.133-.011.194a.952.952,0,0,1-.032.168.362.362,0,0,1-.059.122.151.151,0,0,1-.073.058.362.362,0,0,1-.3-.03.805.805,0,0,1-.156-.1l-.016-.015h-.044a.394.394,0,0,0-.167.083.225.225,0,0,0-.086.178.259.259,0,0,0,.042.147.306.306,0,0,0,.1.093.42.42,0,0,0,.126.047.63.63,0,0,0,.127.013,1.054,1.054,0,0,0,.387-.072.831.831,0,0,0,.319-.224,1.255,1.255,0,0,0,.253-.421,1.675,1.675,0,0,0,.094-.586v-.1c0-.056,0-.124,0-.2s0-.166,0-.262,0-.2,0-.3,0-.2,0-.293v-1.354a.976.976,0,0,1,.015-.193.177.177,0,0,1,.048-.1.249.249,0,0,1,.108-.053,1.193,1.193,0,0,1,.207-.03Z" transform="translate(-254.21 -271.234)"/>
        <path id="パス_348" data-name="パス 348" class="cls-2" d="M309.673,273.9a.242.242,0,0,1-.11-.049.327.327,0,0,1-.079-.11,2.1,2.1,0,0,1-.088-.225l-.753-2.184c-.024-.073-.051-.154-.078-.244s-.053-.185-.078-.29l-.012-.051-.3.038-.012.032a1,1,0,0,1-.074.153,1.256,1.256,0,0,0-.09.184l-.928,2.267c-.048.112-.091.2-.127.269a.582.582,0,0,1-.106.146.271.271,0,0,1-.121.066,1.227,1.227,0,0,1-.2.03l-.057,0,.013.225h.054c.083,0,.169,0,.258,0,.2,0,.373,0,.559,0,.1,0,.2,0,.28,0h.053l.019-.233-.06,0a.928.928,0,0,1-.274-.039.064.064,0,0,1-.046-.067.953.953,0,0,1,.063-.22l.244-.623h1.034l.225.674c.013.039.024.074.033.106a.264.264,0,0,1,.011.07.06.06,0,0,1-.044.065.93.93,0,0,1-.251.041l-.059,0,.02.225h.053c.094,0,.19,0,.286,0,.213,0,.418,0,.622,0,.113,0,.217,0,.311,0h.053l.019-.232-.058,0A1.72,1.72,0,0,1,309.673,273.9Zm-1.119-1.234h-.81l.441-1.113Z" transform="translate(-264.307 -270.745)"/>
        <path id="パス_349" data-name="パス 349" class="cls-2" d="M332.477,272.116a.936.936,0,0,0-.1-.458.853.853,0,0,0-.279-.3,1.173,1.173,0,0,0-.4-.162,2.44,2.44,0,0,0-.777-.031,3.069,3.069,0,0,1-.435.014c-.116,0-.231,0-.326,0l-.127,0h-.055l-.013.233.058,0a1.556,1.556,0,0,1,.216.023.215.215,0,0,1,.1.04.108.108,0,0,1,.036.059.507.507,0,0,1,.012.12V273.9a1.067,1.067,0,0,1-.014.2.183.183,0,0,1-.043.094.21.21,0,0,1-.1.052,1.094,1.094,0,0,1-.2.03l-.057,0,.013.225h.054l.115,0c.092,0,.194,0,.3,0l.139,0c.107,0,.226,0,.358,0s.259,0,.379,0h.055l.013-.235h-.06a1.8,1.8,0,0,1-.278-.021.317.317,0,0,1-.128-.045.087.087,0,0,1-.038-.056.737.737,0,0,1-.009-.125v-.862c.033.008.071.015.113.021a1.6,1.6,0,0,0,.687-.049,1.256,1.256,0,0,0,.393-.2,1.049,1.049,0,0,0,.287-.337A.985.985,0,0,0,332.477,272.116Zm-.571.017a.879.879,0,0,1-.068.371.681.681,0,0,1-.171.234.61.61,0,0,1-.228.124,1.069,1.069,0,0,1-.438.027.961.961,0,0,1-.114-.022v-1.239a.518.518,0,0,1,.009-.1.072.072,0,0,1,.024-.043.18.18,0,0,1,.078-.03.92.92,0,0,1,.173-.012.8.8,0,0,1,.547.17A.668.668,0,0,1,331.906,272.133Z" transform="translate(-284.296 -271.084)"/>
        <path id="パス_350" data-name="パス 350" class="cls-2" d="M352.809,270.831l-.11,0-.27.007c-.165,0-.3,0-.44,0l-.256,0h-.055l-.013.232.057,0c.092.007.164.015.219.025a.213.213,0,0,1,.109.046.186.186,0,0,1,.051.1,1.24,1.24,0,0,1,.017.235v1.8l-2.07-2.442h-.027l-.194,0c-.138,0-.272,0-.377,0l-.12,0h-.055l-.013.232.057,0c.061,0,.111.01.153.016a.35.35,0,0,1,.092.026.239.239,0,0,1,.062.04.5.5,0,0,1,.061.068.429.429,0,0,1,.047.068.28.28,0,0,1,.026.077.809.809,0,0,1,.014.133c0,.058,0,.133,0,.225V273.4a1.88,1.88,0,0,1-.019.3.283.283,0,0,1-.058.142.2.2,0,0,1-.108.058,2.014,2.014,0,0,1-.215.031l-.044,0v-.01l-.058,0a1.725,1.725,0,0,1-.205-.026.245.245,0,0,1-.11-.049.331.331,0,0,1-.079-.11,2.115,2.115,0,0,1-.088-.225l-.754-2.184q-.037-.11-.078-.244c-.027-.089-.053-.186-.077-.291l-.012-.051-.3.038-.013.032a.985.985,0,0,1-.075.154,1.3,1.3,0,0,0-.089.184l-.928,2.267c-.048.112-.091.2-.127.268a.584.584,0,0,1-.107.147.27.27,0,0,1-.12.066,1.217,1.217,0,0,1-.2.03l-.056,0,.013.225h.055q.125,0,.258,0c.195,0,.373,0,.559,0,.1,0,.2,0,.279,0h.053l.02-.233-.06,0a.931.931,0,0,1-.274-.039.064.064,0,0,1-.046-.067.947.947,0,0,1,.063-.22l.243-.623h1.035l.224.674c.013.039.024.074.033.106a.273.273,0,0,1,.011.07.06.06,0,0,1-.044.065.9.9,0,0,1-.251.041l-.059,0,.02.225h.053q.141,0,.286,0c.212,0,.418,0,.622,0q.17,0,.311,0h.053l.012-.142.013.145h.053q.118,0,.257,0c.21,0,.4,0,.57,0,.1,0,.183,0,.254,0h.054l.013-.232-.057,0c-.089-.006-.162-.015-.217-.024a.217.217,0,0,1-.107-.046.187.187,0,0,1-.051-.1,1.235,1.235,0,0,1-.017-.235v-1.824l1.7,2.022q.1.116.182.231t.173.238l.022.031.258-.05V271.6a1.861,1.861,0,0,1,.019-.305.3.3,0,0,1,.056-.143.186.186,0,0,1,.1-.058,1.631,1.631,0,0,1,.207-.032l.053-.006-.006-.224h-.056Zm-4.855,1.833h-.81l.442-1.114Z" transform="translate(-297.895 -270.745)"/>
        <path id="パス_351" data-name="パス 351" class="cls-2" d="M395.8,273.758c-.051.119-.1.221-.141.3a.662.662,0,0,1-.136.183.435.435,0,0,1-.183.094,1.234,1.234,0,0,1-.3.03h-.244a1.08,1.08,0,0,1-.208-.016.2.2,0,0,1-.1-.045.149.149,0,0,1-.043-.085.9.9,0,0,1-.014-.176V273.1l.488.015c.2.007.4.019.6.037l.061.005.009-.364-.058-.059-1.1.033v-1.1a.436.436,0,0,1,0-.057.282.282,0,0,1,.1-.01h.479a1.07,1.07,0,0,1,.263.026.312.312,0,0,1,.148.082.4.4,0,0,1,.09.16,2.11,2.11,0,0,1,.065.28l.009.049.239-.006v-.055q0-.21.013-.4c.007-.125.016-.244.029-.355l.008-.065h-.065q-.647,0-1.066,0l-.549,0-.152,0c-.107,0-.223,0-.335,0l-.147,0h-.053l-.02.233.06,0a1.593,1.593,0,0,1,.221.023.255.255,0,0,1,.106.041.11.11,0,0,1,.04.059.451.451,0,0,1,.013.118v2.255a.969.969,0,0,1-.015.194.166.166,0,0,1-.049.093.267.267,0,0,1-.118.054,1.564,1.564,0,0,1-.239.03l-.059,0,.02.225h.053l.14,0c.11,0,.228,0,.339,0l.141,0,.618,0q.414,0,1.081,0h.054l0-.054c0-.039.008-.089.016-.149s.02-.128.033-.2.028-.143.043-.216.032-.141.049-.2l.016-.058-.236-.055Z" transform="translate(-338.331 -271.231)"/>
        <path id="パス_352" data-name="パス 352" class="cls-2" d="M413.447,272.669a1.491,1.491,0,0,0-.3-.206c-.111-.057-.221-.11-.327-.156q-.129-.056-.247-.115a.882.882,0,0,1-.2-.13.533.533,0,0,1-.128-.171.566.566,0,0,1-.046-.245.494.494,0,0,1,.037-.195.45.45,0,0,1,.1-.148.443.443,0,0,1,.154-.095.588.588,0,0,1,.2-.033.647.647,0,0,1,.461.16.744.744,0,0,1,.2.494l0,.058.251-.024v-.053c0-.071,0-.137,0-.2l0-.181c0-.058,0-.118.008-.178s.01-.127.017-.2l0-.049-.047-.012c-.135-.035-.265-.064-.388-.087a1.91,1.91,0,0,0-.827.027,1.1,1.1,0,0,0-.357.177.879.879,0,0,0-.248.292.857.857,0,0,0-.092.4.774.774,0,0,0,.084.369,1.018,1.018,0,0,0,.21.27,1.366,1.366,0,0,0,.285.2c.1.055.208.1.307.149s.175.081.259.123a1.077,1.077,0,0,1,.216.141.609.609,0,0,1,.147.185.556.556,0,0,1,.054.255.545.545,0,0,1-.042.217.52.52,0,0,1-.118.17.538.538,0,0,1-.175.112.6.6,0,0,1-.22.039.782.782,0,0,1-.315-.057.712.712,0,0,1-.228-.158.991.991,0,0,1-.171-.242,3.331,3.331,0,0,1-.14-.316l-.018-.047-.247.059.015.057c.037.145.067.284.089.411s.041.27.056.412l0,.039.038.011c.148.043.291.077.424.1a2.153,2.153,0,0,0,.392.038,1.414,1.414,0,0,0,.43-.066,1.154,1.154,0,0,0,.374-.2,1,1,0,0,0,.263-.316.91.91,0,0,0,.1-.431.806.806,0,0,0-.087-.382A1,1,0,0,0,413.447,272.669Z" transform="translate(-353.732 -270.856)"/>
        <path id="パス_353" data-name="パス 353" class="cls-2" d="M429.778,273.715l-.019.045c-.051.119-.1.221-.14.3a.654.654,0,0,1-.137.184.433.433,0,0,1-.182.094,1.237,1.237,0,0,1-.3.03h-.245a1.077,1.077,0,0,1-.208-.016.206.206,0,0,1-.1-.044.154.154,0,0,1-.043-.085.927.927,0,0,1-.014-.176V273.1l.488.015c.2.007.4.019.6.037l.061.005.009-.365-.059-.059-1.1.033v-1.1a.406.406,0,0,1,0-.057.288.288,0,0,1,.1-.009h.479a1.072,1.072,0,0,1,.263.026.317.317,0,0,1,.148.082.4.4,0,0,1,.09.16,2.078,2.078,0,0,1,.065.28l.009.049.239-.006v-.055q0-.21.013-.4c.007-.121.017-.24.03-.355l.008-.065h-.065q-.647,0-1.066,0l-.549,0-.152,0c-.108,0-.223,0-.335,0l-.147,0h-.053l-.019.233.06,0a1.6,1.6,0,0,1,.221.023.252.252,0,0,1,.106.041.107.107,0,0,1,.04.059.442.442,0,0,1,.013.118v2.255a.965.965,0,0,1-.016.194.167.167,0,0,1-.049.093.27.27,0,0,1-.118.054,1.564,1.564,0,0,1-.239.03l-.059,0,.019.226h.053l.14,0c.11,0,.229,0,.338,0l.141,0,.617,0q.414,0,1.081,0h.055l0-.055c0-.039.008-.089.016-.149s.02-.128.033-.2.028-.143.043-.216.032-.141.05-.2l.016-.058Z" transform="translate(-367.189 -271.232)"/>
      </g>
      <g id="グループ化_22" data-name="グループ化 22" transform="translate(10.048 46.949)">
        <path id="パス_354" data-name="パス 354" class="cls-2" d="M76.142,316.116l-.11,0-.27.007c-.164,0-.3,0-.439,0q-.148,0-.256,0h-.055l-.013.232.057,0c.09.007.164.015.219.025a.212.212,0,0,1,.108.046.185.185,0,0,1,.051.1,1.229,1.229,0,0,1,.017.234v1.8l-2.07-2.442h-.027l-.194,0c-.138,0-.272,0-.376,0l-.12,0H72.61l-.013.232.057,0c.061,0,.111.01.153.016a.347.347,0,0,1,.092.025.251.251,0,0,1,.063.041.486.486,0,0,1,.061.067.442.442,0,0,1,.047.068.284.284,0,0,1,.026.076.823.823,0,0,1,.014.132q0,.086,0,.226v1.679a1.863,1.863,0,0,1-.019.3.286.286,0,0,1-.058.142.2.2,0,0,1-.108.058,2.069,2.069,0,0,1-.215.031l-.043,0v-.01l-.058,0a1.745,1.745,0,0,1-.206-.026.247.247,0,0,1-.11-.049.329.329,0,0,1-.079-.11,2.194,2.194,0,0,1-.088-.225l-.754-2.184q-.037-.11-.078-.244c-.027-.087-.053-.185-.078-.29l-.012-.051-.3.038-.012.032a1.011,1.011,0,0,1-.074.154,1.308,1.308,0,0,0-.089.184l-.928,2.267c-.049.113-.091.2-.127.268a.584.584,0,0,1-.106.147.263.263,0,0,1-.121.066,1.169,1.169,0,0,1-.2.03l-.021,0c.008-.054.017-.11.029-.171s.028-.143.043-.216.032-.141.049-.2l.016-.058-.233-.055-.019.045c-.051.119-.1.22-.139.3a.619.619,0,0,1-.136.182.444.444,0,0,1-.186.095,1.269,1.269,0,0,1-.3.03h-.174a1.1,1.1,0,0,1-.208-.016.207.207,0,0,1-.1-.045.153.153,0,0,1-.043-.084.908.908,0,0,1-.014-.176v-2.127a.978.978,0,0,1,.016-.193.18.18,0,0,1,.047-.1.235.235,0,0,1,.106-.053,1.257,1.257,0,0,1,.213-.03l.06,0-.026-.225h-.051l-.118,0c-.094,0-.2,0-.312,0s-.2,0-.316,0l-.353,0-.134,0h-.052l-.019.233.06,0a1.637,1.637,0,0,1,.221.022.253.253,0,0,1,.106.041.109.109,0,0,1,.04.058.453.453,0,0,1,.013.119v2.255a.965.965,0,0,1-.016.194.178.178,0,0,1-.047.094.239.239,0,0,1-.107.053,1.242,1.242,0,0,1-.213.03l-.059,0,.02.225h.053l.12,0c.1,0,.207,0,.313,0l.146,0h.117l.146,0c.112,0,.258,0,.473,0l.383,0H69.2v0h.055q.125,0,.258,0c.194-.005.372,0,.558,0q.155,0,.279,0h.053l.019-.233-.06,0a.918.918,0,0,1-.274-.04.063.063,0,0,1-.046-.067.96.96,0,0,1,.063-.22l.244-.623H71.39l.225.674q.02.059.033.106a.276.276,0,0,1,.011.07.061.061,0,0,1-.044.065.956.956,0,0,1-.251.041l-.059,0,.02.225h.053q.141,0,.286,0c.212-.005.417,0,.622,0q.17,0,.311,0h.053l.012-.142.013.145h.053c.079,0,.164,0,.258,0,.209-.005.4,0,.57,0l.254,0h.055l.013-.232-.056,0c-.088-.006-.161-.015-.217-.024a.212.212,0,0,1-.107-.046.186.186,0,0,1-.051-.1,1.234,1.234,0,0,1-.017-.235V316.98l1.7,2.022c.064.078.125.154.183.231s.115.156.173.238l.021.031.258-.05v-2.567a1.863,1.863,0,0,1,.019-.3.3.3,0,0,1,.056-.143.186.186,0,0,1,.1-.058,1.64,1.64,0,0,1,.207-.032l.053-.006-.006-.224Zm-4.854,1.833h-.81l.441-1.114Z" transform="translate(-66.869 -316.03)"/>
        <path id="パス_355" data-name="パス 355" class="cls-2" d="M133.662,318.017l-.115,0c-.084,0-.174,0-.278,0s-.188,0-.3,0l-.377,0-.177,0h-.055l-.013.234.059,0a2.77,2.77,0,0,1,.29.023.431.431,0,0,1,.152.045.117.117,0,0,1,.055.059.33.33,0,0,1,.016.114v.663c0,.008,0,.032-.054.059a.832.832,0,0,1-.186.066,1.628,1.628,0,0,1-.215.035q-.1.01-.15.01a1.325,1.325,0,0,1-.573-.117,1.138,1.138,0,0,1-.4-.316,1.372,1.372,0,0,1-.241-.473,2.075,2.075,0,0,1-.081-.588,1.937,1.937,0,0,1,.08-.571,1.165,1.165,0,0,1,.238-.434,1.078,1.078,0,0,1,.4-.28,1.509,1.509,0,0,1,.578-.1,1.179,1.179,0,0,1,.329.044.742.742,0,0,1,.261.134.689.689,0,0,1,.181.226.825.825,0,0,1,.082.323l0,.06.252-.024v-.053q0-.214,0-.4c0-.123.008-.257.021-.4l0-.049-.047-.013c-.068-.018-.144-.035-.227-.051s-.166-.03-.25-.042-.169-.022-.253-.029-.162-.01-.232-.01a2.739,2.739,0,0,0-.78.108,1.843,1.843,0,0,0-.64.33,1.584,1.584,0,0,0-.433.555,1.787,1.787,0,0,0-.158.774,1.715,1.715,0,0,0,.139.7,1.558,1.558,0,0,0,.388.537,1.76,1.76,0,0,0,.589.343,2.211,2.211,0,0,0,.741.121,2.849,2.849,0,0,0,.559-.058c.186-.037.374-.082.558-.132l.051-.014-.009-.052a1.585,1.585,0,0,1-.019-.234c0-.1,0-.2,0-.308v-.215a1.374,1.374,0,0,1,.011-.194.219.219,0,0,1,.036-.1.133.133,0,0,1,.068-.047.715.715,0,0,1,.145-.028l.057-.006-.02-.223h-.052Z" transform="translate(-120.874 -316.141)"/>
        <path id="パス_356" data-name="パス 356" class="cls-2" d="M156.852,316.829l-.007-.224h-.056c-.072,0-.162,0-.27.005-.238.008-.452.005-.652,0l-.284,0h-.055l-.013.233.057,0a2.085,2.085,0,0,1,.26.029.292.292,0,0,1,.136.057.2.2,0,0,1,.062.11,1,1,0,0,1,.02.224v1.407a1.221,1.221,0,0,1-.072.443.816.816,0,0,1-.189.294.713.713,0,0,1-.27.164,1.084,1.084,0,0,1-.654,0,.821.821,0,0,1-.28-.15.736.736,0,0,1-.2-.261.921.921,0,0,1-.075-.39v-1.551a.91.91,0,0,1,.017-.193.206.206,0,0,1,.053-.1.249.249,0,0,1,.114-.059,1.3,1.3,0,0,1,.224-.032l.059,0-.02-.225h-.053l-.134,0c-.1,0-.215,0-.325,0s-.212,0-.326,0-.25,0-.362,0l-.144,0h-.055l-.013.233.058,0a1.425,1.425,0,0,1,.231.026.289.289,0,0,1,.116.047.12.12,0,0,1,.044.065.492.492,0,0,1,.013.122v1.789a1.108,1.108,0,0,0,.1.491,1.019,1.019,0,0,0,.275.348,1.159,1.159,0,0,0,.393.2,1.591,1.591,0,0,0,.459.066,1.719,1.719,0,0,0,.477-.068,1.2,1.2,0,0,0,.426-.222,1.143,1.143,0,0,0,.305-.393,1.328,1.328,0,0,0,.116-.581v-1.417a1.526,1.526,0,0,1,.019-.274.236.236,0,0,1,.059-.127.229.229,0,0,1,.118-.057c.06-.012.139-.022.234-.031Z" transform="translate(-140.357 -316.519)"/>
        <path id="パス_357" data-name="パス 357" class="cls-2" d="M178.478,319.184a.245.245,0,0,1-.11-.049.329.329,0,0,1-.079-.11,2.139,2.139,0,0,1-.088-.225l-.754-2.184c-.025-.073-.05-.154-.078-.243s-.053-.185-.078-.29l-.012-.051-.3.038-.012.032a.986.986,0,0,1-.074.153,1.3,1.3,0,0,0-.089.184l-.928,2.267c-.048.113-.091.2-.127.268a.579.579,0,0,1-.106.147.265.265,0,0,1-.121.066,1.171,1.171,0,0,1-.2.03l-.056,0,.013.225h.054c.083,0,.169,0,.258,0,.194-.005.372,0,.558,0l.279,0h.053l.019-.233-.06,0a.919.919,0,0,1-.274-.04.063.063,0,0,1-.046-.067.958.958,0,0,1,.063-.22l.244-.623h1.035l.225.674q.02.059.033.106a.276.276,0,0,1,.011.07.061.061,0,0,1-.044.065.956.956,0,0,1-.251.041l-.059,0,.02.225h.053q.141,0,.286,0c.212-.005.417,0,.622,0l.311,0h.053l.019-.232-.058,0A1.7,1.7,0,0,1,178.478,319.184Zm-1.118-1.234h-.81l.441-1.114Z" transform="translate(-158.976 -316.031)"/>
        <path id="パス_358" data-name="パス 358" class="cls-2" d="M202.114,318.017l-.115,0c-.084,0-.174,0-.278,0s-.188,0-.3,0l-.377,0-.177,0h-.055l-.013.234.059,0a2.756,2.756,0,0,1,.29.023.431.431,0,0,1,.152.045.116.116,0,0,1,.055.059.33.33,0,0,1,.016.114v.663c0,.008,0,.032-.054.059a.832.832,0,0,1-.186.066,1.608,1.608,0,0,1-.215.035c-.07.007-.12.01-.15.01a1.325,1.325,0,0,1-.573-.117,1.134,1.134,0,0,1-.4-.316,1.373,1.373,0,0,1-.241-.473,2.076,2.076,0,0,1-.081-.588,1.938,1.938,0,0,1,.08-.571,1.165,1.165,0,0,1,.238-.434,1.077,1.077,0,0,1,.4-.28,1.51,1.51,0,0,1,.578-.1,1.179,1.179,0,0,1,.329.044.744.744,0,0,1,.261.134.687.687,0,0,1,.181.226.825.825,0,0,1,.083.323l0,.059.252-.024v-.053q0-.214,0-.4c0-.123.008-.257.022-.4l0-.049-.047-.013c-.068-.018-.144-.035-.227-.051s-.166-.03-.25-.042-.169-.022-.253-.029-.162-.01-.232-.01a2.741,2.741,0,0,0-.781.108,1.843,1.843,0,0,0-.64.33,1.581,1.581,0,0,0-.433.555,1.789,1.789,0,0,0-.158.774,1.716,1.716,0,0,0,.139.7,1.555,1.555,0,0,0,.388.537,1.759,1.759,0,0,0,.589.343,2.211,2.211,0,0,0,.741.121,2.85,2.85,0,0,0,.559-.058c.186-.037.374-.082.558-.132l.051-.014-.009-.052a1.589,1.589,0,0,1-.019-.234c0-.1,0-.2,0-.308v-.215a1.36,1.36,0,0,1,.011-.194.222.222,0,0,1,.036-.1.135.135,0,0,1,.068-.047.711.711,0,0,1,.145-.027l.056-.006-.02-.223h-.053Z" transform="translate(-179.041 -316.141)"/>
        <path id="パス_359" data-name="パス 359" class="cls-2" d="M224.384,319.045c-.052.122-.1.22-.14.3a.662.662,0,0,1-.137.183.431.431,0,0,1-.182.094,1.237,1.237,0,0,1-.3.03h-.244a1.088,1.088,0,0,1-.208-.016.205.205,0,0,1-.1-.045.15.15,0,0,1-.043-.085.9.9,0,0,1-.014-.176v-.949l.488.015c.2.007.4.019.6.037l.061.005.009-.364-.059-.059-1.1.033v-1.1a.355.355,0,0,1,0-.057.277.277,0,0,1,.1-.009h.479a1.074,1.074,0,0,1,.263.026.312.312,0,0,1,.148.082.4.4,0,0,1,.09.16,2.1,2.1,0,0,1,.065.28l.009.049.239-.006v-.055q0-.21.013-.4c.007-.122.017-.242.03-.355l.008-.065h-.065q-.647,0-1.066,0l-.549,0-.151,0-.335,0-.147,0h-.053l-.019.233.06,0a1.609,1.609,0,0,1,.221.022.259.259,0,0,1,.107.041.111.111,0,0,1,.04.059.454.454,0,0,1,.013.119v2.255a.977.977,0,0,1-.016.194.168.168,0,0,1-.049.093.266.266,0,0,1-.119.054,1.513,1.513,0,0,1-.238.03l-.059,0,.02.226h.053l.14,0c.109,0,.229,0,.339,0l.141,0,.618,0q.414,0,1.081,0h.055l0-.055c0-.039.008-.089.016-.149s.02-.128.033-.2.028-.143.043-.216.032-.141.049-.2l.016-.058L224.4,319Z" transform="translate(-198.717 -316.518)"/>
        <path id="パス_360" data-name="パス 360" class="cls-2" d="M264.323,317.955a1.485,1.485,0,0,0-.3-.206c-.111-.057-.221-.11-.327-.156-.086-.038-.169-.075-.247-.115a.888.888,0,0,1-.2-.13.535.535,0,0,1-.129-.171.569.569,0,0,1-.046-.245.492.492,0,0,1,.037-.195.454.454,0,0,1,.1-.149.445.445,0,0,1,.154-.095.585.585,0,0,1,.2-.034.646.646,0,0,1,.461.16.744.744,0,0,1,.2.494l0,.058.251-.024V317.1c0-.071,0-.137,0-.2l0-.181q0-.087.008-.178t.017-.2l0-.049-.047-.012c-.136-.036-.267-.065-.388-.087a1.915,1.915,0,0,0-.827.027,1.105,1.105,0,0,0-.357.177.878.878,0,0,0-.248.292.854.854,0,0,0-.092.4.773.773,0,0,0,.084.369,1,1,0,0,0,.21.27,1.352,1.352,0,0,0,.285.2c.1.054.205.1.306.149s.175.081.259.123a1.074,1.074,0,0,1,.216.142.6.6,0,0,1,.147.185.553.553,0,0,1,.054.255.547.547,0,0,1-.042.217.517.517,0,0,1-.118.171.535.535,0,0,1-.175.112.6.6,0,0,1-.22.039.783.783,0,0,1-.315-.057.715.715,0,0,1-.228-.159.988.988,0,0,1-.171-.242,3.276,3.276,0,0,1-.14-.316l-.018-.047-.247.059.015.057c.037.144.067.283.09.411s.041.268.056.412l0,.039.037.011c.147.042.289.077.424.1a2.158,2.158,0,0,0,.392.038,1.417,1.417,0,0,0,.43-.066,1.164,1.164,0,0,0,.374-.2,1.006,1.006,0,0,0,.263-.316.9.9,0,0,0,.1-.431.8.8,0,0,0-.087-.382A1,1,0,0,0,264.323,317.955Z" transform="translate(-233.059 -316.141)"/>
        <path id="パス_361" data-name="パス 361" class="cls-2" d="M281.641,318.516a3.213,3.213,0,0,1-.173.36.979.979,0,0,1-.2.249.714.714,0,0,1-.272.152,1.134,1.134,0,0,1-.33.048,1.224,1.224,0,0,1-.55-.116,1.115,1.115,0,0,1-.387-.316,1.37,1.37,0,0,1-.233-.473,2.149,2.149,0,0,1-.078-.589,1.8,1.8,0,0,1,.086-.57,1.2,1.2,0,0,1,.249-.435,1.122,1.122,0,0,1,.406-.28,1.482,1.482,0,0,1,.568-.1.99.99,0,0,1,.3.043.617.617,0,0,1,.392.35.939.939,0,0,1,.074.323l0,.059.252-.024v-.053q0-.214.005-.406c0-.127.011-.262.025-.4l0-.049-.047-.012a3.4,3.4,0,0,0-.441-.085,3.483,3.483,0,0,0-.445-.031,2.693,2.693,0,0,0-.767.108,1.9,1.9,0,0,0-.644.33,1.609,1.609,0,0,0-.443.554,1.893,1.893,0,0,0-.028,1.472,1.563,1.563,0,0,0,.378.537,1.7,1.7,0,0,0,.572.344,2.083,2.083,0,0,0,.719.121,3.218,3.218,0,0,0,.53-.044,4.662,4.662,0,0,0,.531-.122l.037-.011,0-.039c.015-.146.034-.284.056-.412s.052-.265.089-.411l.015-.056-.239-.06Z" transform="translate(-246.981 -316.139)"/>
        <path id="パス_362" data-name="パス 362" class="cls-2" d="M304.514,319.678a.225.225,0,0,1-.1-.04.107.107,0,0,1-.036-.058.515.515,0,0,1-.012-.12V317.2a1.065,1.065,0,0,1,.014-.194.184.184,0,0,1,.043-.1.207.207,0,0,1,.1-.051,1.079,1.079,0,0,1,.2-.03l.057,0-.013-.225h-.054l-.115,0c-.087,0-.189,0-.295,0s-.2,0-.309,0-.234,0-.336,0l-.13,0h-.055l-.013.233.058,0a1.472,1.472,0,0,1,.212.022.221.221,0,0,1,.1.04.1.1,0,0,1,.034.057.591.591,0,0,1,.01.122v.947h-1.677v-.823a1.232,1.232,0,0,1,.013-.195.18.18,0,0,1,.041-.1.208.208,0,0,1,.095-.052,1.047,1.047,0,0,1,.2-.03l.058,0-.02-.225h-.167l-.144,0h-.611l-.171,0h-.2l-.013.233.058,0a1.569,1.569,0,0,1,.216.022.23.23,0,0,1,.1.04.111.111,0,0,1,.036.058.526.526,0,0,1,.012.12v2.251a1.077,1.077,0,0,1-.014.2.182.182,0,0,1-.044.1.2.2,0,0,1-.1.051,1.077,1.077,0,0,1-.2.03l-.057,0,.013.225h.054l.115,0c.091,0,.2,0,.295,0,.115,0,.2,0,.309,0l.337.007.13,0h.055l.013-.233-.058,0a1.447,1.447,0,0,1-.212-.022.221.221,0,0,1-.1-.04.1.1,0,0,1-.034-.057.586.586,0,0,1-.01-.122v-1.118h1.677v.994a1.224,1.224,0,0,1-.013.2.172.172,0,0,1-.041.093.206.206,0,0,1-.095.052,1.032,1.032,0,0,1-.2.03l-.058,0,.02.225h.053l.113,0c.087,0,.188,0,.288,0s.2,0,.311,0,.239,0,.341,0l.132,0h.055l.013-.233-.058,0A1.58,1.58,0,0,1,304.514,319.678Z" transform="translate(-266.044 -316.518)"/>
        <path id="パス_363" data-name="パス 363" class="cls-2" d="M329.681,316.621a1.546,1.546,0,0,0-.544-.343,1.953,1.953,0,0,0-.692-.12,1.8,1.8,0,0,0-.7.132,1.588,1.588,0,0,0-.542.368,1.679,1.679,0,0,0-.35.56,1.959,1.959,0,0,0-.125.706,1.862,1.862,0,0,0,.127.7,1.524,1.524,0,0,0,.9.88,1.942,1.942,0,0,0,.691.12,1.8,1.8,0,0,0,.7-.132,1.589,1.589,0,0,0,.542-.368,1.672,1.672,0,0,0,.35-.56,1.956,1.956,0,0,0,.125-.706,1.87,1.87,0,0,0-.126-.7A1.575,1.575,0,0,0,329.681,316.621Zm-.1,1.365a1.853,1.853,0,0,1-.094.629,1.157,1.157,0,0,1-.247.414.92.92,0,0,1-.353.229,1.224,1.224,0,0,1-.835,0,.95.95,0,0,1-.368-.25,1.358,1.358,0,0,1-.272-.471,2.172,2.172,0,0,1-.107-.734,1.847,1.847,0,0,1,.094-.629,1.157,1.157,0,0,1,.247-.414.913.913,0,0,1,.353-.228,1.269,1.269,0,0,1,.425-.072,1.2,1.2,0,0,1,.411.075.951.951,0,0,1,.368.25,1.357,1.357,0,0,1,.272.471A2.174,2.174,0,0,1,329.582,317.986Z" transform="translate(-287.68 -316.14)"/>
        <path id="パス_364" data-name="パス 364" class="cls-2" d="M354.7,316.621a1.547,1.547,0,0,0-.544-.343,1.952,1.952,0,0,0-.692-.12,1.8,1.8,0,0,0-.7.132,1.593,1.593,0,0,0-.542.368,1.683,1.683,0,0,0-.351.56,1.966,1.966,0,0,0-.124.706,1.862,1.862,0,0,0,.127.7,1.526,1.526,0,0,0,.9.88,1.939,1.939,0,0,0,.691.12,1.8,1.8,0,0,0,.7-.132,1.59,1.59,0,0,0,.542-.368,1.68,1.68,0,0,0,.351-.56,1.965,1.965,0,0,0,.124-.706,1.863,1.863,0,0,0-.127-.7A1.58,1.58,0,0,0,354.7,316.621Zm-.1,1.365a1.856,1.856,0,0,1-.094.629,1.155,1.155,0,0,1-.247.414.92.92,0,0,1-.353.229,1.225,1.225,0,0,1-.836,0,.95.95,0,0,1-.368-.25,1.361,1.361,0,0,1-.273-.471,2.182,2.182,0,0,1-.107-.734,1.854,1.854,0,0,1,.094-.629,1.16,1.16,0,0,1,.247-.414.918.918,0,0,1,.353-.228,1.267,1.267,0,0,1,.425-.072,1.2,1.2,0,0,1,.411.075.95.95,0,0,1,.368.25,1.36,1.36,0,0,1,.273.471A2.178,2.178,0,0,1,354.6,317.986Z" transform="translate(-308.938 -316.14)"/>
        <path id="パス_365" data-name="パス 365" class="cls-2" d="M378.745,319l-.019.045c-.05.118-.1.219-.139.3a.623.623,0,0,1-.136.182.445.445,0,0,1-.186.095,1.268,1.268,0,0,1-.3.03h-.174a1.1,1.1,0,0,1-.208-.016.2.2,0,0,1-.1-.044.155.155,0,0,1-.043-.084.913.913,0,0,1-.014-.176v-2.127a.981.981,0,0,1,.015-.193.183.183,0,0,1,.047-.1.233.233,0,0,1,.106-.053,1.246,1.246,0,0,1,.213-.03l.06,0-.026-.225h-.051l-.119,0c-.094,0-.2,0-.312,0s-.2,0-.316,0-.249,0-.353,0l-.134,0H376.5l-.019.233.06,0a1.641,1.641,0,0,1,.221.022.254.254,0,0,1,.106.041.108.108,0,0,1,.04.059.439.439,0,0,1,.013.118v2.255a.957.957,0,0,1-.016.194.179.179,0,0,1-.047.094.235.235,0,0,1-.107.053,1.239,1.239,0,0,1-.212.03l-.059,0,.02.225h.053l.12,0c.1,0,.206,0,.313,0l.146,0h.117l.146,0c.111,0,.258,0,.473,0l.383,0h.564l0-.055c0-.039.008-.089.016-.149s.02-.128.033-.2.028-.143.043-.216.032-.141.049-.2l.016-.058Z" transform="translate(-329.957 -316.519)"/>
      </g>
      <path id="パス_366" data-name="パス 366" class="cls-5" d="M207.123,77.415h-8.142c-.233,0-.436-.007-.606-.007v.007h-3.515v.7h3.966a6.893,6.893,0,0,1,.75.1,1.718,1.718,0,0,1,.722.291.889.889,0,0,1,.328.5,3.16,3.16,0,0,1,.075.75V95.342q0,.581-.01,1.163c-.007.387-.028.76-.066,1.116a5.868,5.868,0,0,1-.187.994,2.323,2.323,0,0,1-.375.779,1.168,1.168,0,0,1-.563.441,2.038,2.038,0,0,1-.694.122,2.561,2.561,0,0,1-1.219-.31,4.789,4.789,0,0,1-.938-.629h-.056a1.876,1.876,0,0,0-.8.394.933.933,0,0,0-.366.751,1.108,1.108,0,0,0,.178.638,1.359,1.359,0,0,0,.46.422,2.061,2.061,0,0,0,.61.225,3.287,3.287,0,0,0,.647.066,5.528,5.528,0,0,0,2.045-.384,4.3,4.3,0,0,0,1.67-1.173,6.668,6.668,0,0,0,1.351-2.252,9.02,9.02,0,0,0,.506-3.17v-.563q0-.468-.009-1.135t-.009-1.473q0-.844-.009-1.679t-.009-1.641V80.466a5.731,5.731,0,0,1,.094-1.144,1.288,1.288,0,0,1,.366-.7,1.69,1.69,0,0,1,.741-.375,5.493,5.493,0,0,1,.7-.127h2.366v-.7Z" transform="translate(-165.765 -65.982)"/>
    </g>
  </g>
</svg>
